<?xml version="1.0" encoding="UTF-8" standalone="no"?>
<svg
   xmlns:dc="http://purl.org/dc/elements/1.1/"
   xmlns:cc="http://creativecommons.org/ns#"
   xmlns:rdf="http://www.w3.org/1999/02/22-rdf-syntax-ns#"
   xmlns:svg="http://www.w3.org/2000/svg"
   xmlns="http://www.w3.org/2000/svg"
   xmlns:sodipodi="http://sodipodi.sourceforge.net/DTD/sodipodi-0.dtd"
   xmlns:inkscape="http://www.inkscape.org/namespaces/inkscape"
   version="1.1"
   id="Layer_1"
   x="0px"
   y="0px"
   width="64"
   height="64"
   viewBox="0 0 64 64"
   enable-background="new 0 0 86 85.833"
   xml:space="preserve"
   inkscape:version="0.48.4 r9939"
   sodipodi:docname="2.svg"><metadata
     id="metadata25"><rdf:RDF><cc:Work
         rdf:about=""><dc:format>image/svg+xml</dc:format><dc:type
           rdf:resource="http://purl.org/dc/dcmitype/StillImage" /></cc:Work></rdf:RDF></metadata><defs
     id="defs23" /><sodipodi:namedview
     pagecolor="#ffffff"
     bordercolor="#666666"
     borderopacity="1"
     objecttolerance="10"
     gridtolerance="10"
     guidetolerance="10"
     inkscape:pageopacity="0"
     inkscape:pageshadow="2"
     inkscape:window-width="1600"
     inkscape:window-height="875"
     id="namedview21"
     showgrid="false"
     inkscape:zoom="7.2419271"
     inkscape:cx="42.742859"
     inkscape:cy="42.992502"
     inkscape:window-x="0"
     inkscape:window-y="0"
     inkscape:window-maximized="1"
     inkscape:current-layer="Layer_1" /><path
     d="m 32.001419,0.9467539 c -1.600308,0 -3.172241,0.1210635 -4.707287,0.3546781 l -0.133359,-0.05864 c -0.01324,0.028374 -0.02365,0.05864 -0.03689,0.087014 -14.834052,2.3399297 -26.17807497,15.17833 -26.17807497,30.669721 0,17.151285 13.90337997,31.053719 31.05466497,31.053719 17.150339,0 31.053719,-13.902434 31.053719,-31.053719 C 63.055138,14.850134 49.151758,0.9467539 32.001419,0.9467539 z M 25.533983,35.211491 c -0.489929,-0.244018 -1.011069,-0.43318 -1.560584,-0.548568 0.04067,-3.965774 0.350895,-7.911685 0.930675,-11.786661 1.824464,-0.378324 3.365186,-1.52086 4.287349,-3.073877 4.451919,1.285353 8.728863,3.31222 12.750439,5.987911 -0.103093,0.316846 -0.179703,0.645987 -0.233614,0.981749 -5.735381,1.744071 -11.18229,4.590953 -16.174265,8.439446 z m -6.386097,11.388476 c 0.557081,0.349949 1.169019,0.615721 1.822572,0.786913 0.466284,3.508002 1.139699,6.962093 2.022138,10.347141 -3.134408,-1.099975 -6.009665,-2.756085 -8.503761,-4.851996 1.459382,-2.233999 3.017128,-4.32991 4.659051,-6.282058 z M 54.659199,28.543544 c 0.197674,-0.0028 0.394402,-0.0104 0.593021,-0.0104 1.272112,0 2.547062,0.0785 3.816336,0.192945 0.129576,1.074438 0.203349,2.165901 0.203349,3.274388 0,1.64476 -0.154167,3.25358 -0.435072,4.819838 -1.560583,-2.088344 -3.207235,-4.048059 -4.933335,-5.866848 0.398185,-0.730164 0.660174,-1.544505 0.755701,-2.409919 z m 3.65744,-3.684869 c -1.021473,-0.0681 -2.044837,-0.108768 -3.064419,-0.108768 -0.436963,0 -0.872981,0.01135 -1.308052,0.02365 -1.097138,-2.076049 -3.275334,-3.49287 -5.785509,-3.49287 -1.521805,0 -2.919709,0.524924 -4.031034,1.396959 -4.411249,-2.947138 -9.125157,-5.159383 -14.035793,-6.557288 -0.10593,-1.985251 -1.093354,-3.731213 -2.58111,-4.858616 0.662065,-2.190492 1.4102,-4.3393681 2.251023,-6.4314957 0.739622,-0.060532 1.484919,-0.09931 2.239674,-0.09931 12.565061,-9.458e-4 23.16757,8.5444307 26.31522,20.1277427 z M 25.438456,5.5329777 c -0.534382,1.4508697 -1.028094,2.9244388 -1.483027,4.4169241 -0.129576,-0.00757 -0.256314,-0.019862 -0.387782,-0.019862 -2.86769,0 -5.299363,1.8481092 -6.181802,4.4159782 -2.193329,0.0019 -4.38382,0.174975 -6.556342,0.489929 3.678248,-4.527584 8.775208,-7.8558828 14.608953,-9.3029693 z M 4.7299869,32.000473 c 0,-4.609869 1.153885,-8.95302 3.180752,-12.763681 3.0682021,-0.707465 6.1978811,-1.088625 9.3360731,-1.101866 0.527761,2.010788 1.982413,3.642306 3.885379,4.406519 -0.603425,4.097241 -0.922162,8.266364 -0.947699,12.454402 -2.40519,0.96567 -4.105753,3.316949 -4.105753,6.068305 0,0.939188 0.202402,1.832031 0.558972,2.638805 -1.731775,2.022138 -3.371806,4.196551 -4.916311,6.508106 C 7.3791949,45.377983 4.7299869,38.993778 4.7299869,32.000473 z M 32.001419,59.270959 c -1.632465,0 -3.228044,-0.152275 -4.782006,-0.428451 -1.092409,-3.777558 -1.911479,-7.65348 -2.452481,-11.605066 2.557465,-0.888114 4.396116,-3.314112 4.396116,-6.17329 0,-1.166181 -0.309279,-2.260481 -0.844606,-3.209127 4.328964,-3.258309 9.005985,-5.708898 13.911892,-7.277048 1.041335,2.233999 3.298979,3.78607 5.927379,3.78607 1.092409,0 2.119557,-0.271447 3.024695,-0.745297 2.269939,2.393841 4.396116,5.04305 6.357722,7.932493 -3.878759,10.339575 -13.861764,17.719716 -25.538711,17.719716 z"
     id="path3"
     style="fill:none;stroke:#000000;stroke-width:1.89161634;stroke-miterlimit:4;stroke-opacity:1;stroke-dasharray:none"
     inkscape:connector-curvature="0" /></svg>