<?xml version="1.0" encoding="UTF-8" standalone="no"?>
<svg
   xmlns:dc="http://purl.org/dc/elements/1.1/"
   xmlns:cc="http://creativecommons.org/ns#"
   xmlns:rdf="http://www.w3.org/1999/02/22-rdf-syntax-ns#"
   xmlns:svg="http://www.w3.org/2000/svg"
   xmlns="http://www.w3.org/2000/svg"
   xmlns:sodipodi="http://sodipodi.sourceforge.net/DTD/sodipodi-0.dtd"
   xmlns:inkscape="http://www.inkscape.org/namespaces/inkscape"
   version="1.1"
   id="Layer_1"
   x="0px"
   y="0px"
   width="100px"
   height="100px"
   viewBox="0 0 100 100"
   enable-background="new 0 0 100 100"
   xml:space="preserve"
   inkscape:version="0.48.4 r9939"
   sodipodi:docname="3.svg"><metadata
     id="metadata61"><rdf:RDF><cc:Work
         rdf:about=""><dc:format>image/svg+xml</dc:format><dc:type
           rdf:resource="http://purl.org/dc/dcmitype/StillImage" /></cc:Work></rdf:RDF></metadata><defs
     id="defs59" /><sodipodi:namedview
     pagecolor="#ffffff"
     bordercolor="#666666"
     borderopacity="1"
     objecttolerance="10"
     gridtolerance="10"
     guidetolerance="10"
     inkscape:pageopacity="0"
     inkscape:pageshadow="2"
     inkscape:window-width="1600"
     inkscape:window-height="875"
     id="namedview57"
     showgrid="false"
     inkscape:zoom="2.36"
     inkscape:cx="-114.83051"
     inkscape:cy="50"
     inkscape:window-x="0"
     inkscape:window-y="0"
     inkscape:window-maximized="1"
     inkscape:current-layer="g3810" /><g
     id="g3810"
     transform="translate(-5.3006686,7.0619995)"
     style="stroke:#000000;stroke-opacity:1"><g
       id="g3778"
       transform="matrix(0.98849754,0,0,0.98849754,0.5956585,0.49389265)"><g
         id="g3038"
         style="fill:none;stroke:#000000;stroke-width:2.57814002;stroke-miterlimit:4;stroke-opacity:1;stroke-dasharray:none"
         transform="matrix(1.1636296,0,0,1.1636296,-2.7429229,-15.207407)"><path
           id="path3"
           d="m 50.122,13.765 c -3.093,0 -5.605,2.498 -5.605,5.59 0,3.09 2.512,5.592 5.605,5.592 3.083,0 5.585,-2.502 5.585,-5.592 0,-3.092 -2.502,-5.59 -5.585,-5.59 z"
           style="fill:none;stroke:#000000;stroke-width:2.57814002;stroke-miterlimit:4;stroke-opacity:1;stroke-dasharray:none"
           inkscape:connector-curvature="0" /><path
           id="path5"
           d="m 55.919,46.679 0.372,-12.162 6.831,15.13 c 0.282,0.661 1.058,0.982 1.722,0.695 0.676,-0.287 0.989,-1.053 0.706,-1.728 0,0 -4.81,-15.052 -6.185,-17.852 -1.375,-2.804 -3.495,-4.51 -8.713,-4.51 H 49.58 c -5.217,0 -7.342,1.705 -8.717,4.51 -1.366,2.8 -6.176,17.852 -6.176,17.852 -0.283,0.675 0.024,1.44 0.695,1.728 0.67,0.287 1.445,-0.034 1.712,-0.695 l 6.841,-15.13 0.372,12.162 -1.077,30.579 c -0.075,1.211 0.834,2.264 2.035,2.344 0.06,0.01 0.115,0.01 0.16,0.01 1.146,0 2.114,-0.883 2.204,-2.047 l 2.478,-25.183 2.506,25.183 c 0.07,1.162 1.043,2.047 2.18,2.047 0.055,0 0.104,0 0.159,-0.01 1.217,-0.08 2.114,-1.133 2.041,-2.344 L 55.91,46.679 h 0.009 z"
           style="fill:none;stroke:#000000;stroke-width:2.57814002;stroke-miterlimit:4;stroke-opacity:1;stroke-dasharray:none"
           inkscape:connector-curvature="0" /></g><path
         d="M 19.090259,27.846888 H 16.763 c 0,3.490889 0.02444,5.087388 0.07447,7.113268 l 2.326096,-0.112873 c -0.05004,-2.004933 -0.07331,-3.509506 -0.07331,-7.000395 z"
         id="path7"
         inkscape:connector-curvature="0"
         style="fill:#000000;stroke:#000000;stroke-opacity:1" /><path
         d="m 91.511074,27.846888 c 0,3.490889 -0.02327,5.050152 -0.07214,7.055086 l 2.324932,0.0035 c 0.0512,-2.025879 0.07447,-3.567688 0.07447,-7.058577 h -2.327259 z"
         id="path9"
         inkscape:connector-curvature="0"
         style="fill:#000000;stroke:#000000;stroke-opacity:1" /><rect
         x="63.583965"
         y="-7.0619998"
         width="6.9817777"
         height="2.3272593"
         id="rect11"
         style="fill:#000000;stroke:#000000;stroke-opacity:1" /><rect
         x="75.220261"
         y="-7.0619998"
         width="6.9817777"
         height="2.3272593"
         id="rect13"
         style="fill:#000000;stroke:#000000;stroke-opacity:1" /><rect
         x="51.947666"
         y="-7.0619998"
         width="6.9817777"
         height="2.3272593"
         id="rect15"
         style="fill:#000000;stroke:#000000;stroke-opacity:1" /><rect
         x="40.311371"
         y="-7.0619998"
         width="6.9817777"
         height="2.3272593"
         id="rect17"
         style="fill:#000000;stroke:#000000;stroke-opacity:1" /><rect
         x="28.675076"
         y="-7.0619998"
         width="6.9817777"
         height="2.3272593"
         id="rect19"
         style="fill:#000000;stroke:#000000;stroke-opacity:1" /><rect
         x="17.03878"
         y="4.574296"
         width="2.3272593"
         height="6.9817777"
         id="rect21"
         style="fill:#000000;stroke:#000000;stroke-opacity:1" /><rect
         x="17.03878"
         y="16.210592"
         width="2.3272593"
         height="6.9817777"
         id="rect23"
         style="fill:#000000;stroke:#000000;stroke-opacity:1" /><rect
         x="91.511078"
         y="4.574296"
         width="2.3272593"
         height="6.9817777"
         id="rect25"
         style="fill:#000000;stroke:#000000;stroke-opacity:1" /><rect
         x="91.511078"
         y="16.210592"
         width="2.3272593"
         height="6.9817777"
         id="rect27"
         style="fill:#000000;stroke:#000000;stroke-opacity:1" /><polygon
         points="23,9 19,9 19,13 17,13 17,7 23,7 "
         id="polygon29"
         transform="matrix(1.1636296,0,0,1.1636296,-2.7429229,-15.207407)"
         style="fill:#000000;stroke:#000000;stroke-opacity:1" /><polygon
         points="81,13 81,9 77,9 77,7 83,7 83,13 "
         id="polygon31"
         transform="matrix(1.1636296,0,0,1.1636296,-2.7429229,-15.207407)"
         style="fill:#000000;stroke:#000000;stroke-opacity:1" /><g
         style="stroke:#000000;stroke-opacity:1"
         id="g33"
         transform="matrix(1.1636296,0,0,1.1636296,-2.7429229,-15.207407)"><path
           d="m 39.219,85.182 c 1.477,1.152 3.096,2.373 4.814,3.627 l 1.179,-1.615 c -1.7,-1.241 -3.302,-2.448 -4.762,-3.588 l -1.231,1.576 z"
           id="path35"
           inkscape:connector-curvature="0"
           style="fill:#000000;stroke:#000000;stroke-opacity:1" /><path
           d="m 30.802,77.964 c 1.354,1.308 2.871,2.669 4.507,4.05 l 1.29,-1.527 C 34.996,79.133 33.513,77.8 32.191,76.526 l -1.389,1.438 z"
           id="path37"
           inkscape:connector-curvature="0"
           style="fill:#000000;stroke:#000000;stroke-opacity:1" /><path
           d="m 18.812,59.273 c 0.577,2.031 1.288,3.914 2.174,5.754 l 1.802,-0.867 c -0.835,-1.735 -1.506,-3.512 -2.052,-5.434 l -1.924,0.547 z"
           id="path39"
           inkscape:connector-curvature="0"
           style="fill:#000000;stroke:#000000;stroke-opacity:1" /><path
           d="m 23.536,69.475 c 1.085,1.623 2.312,3.203 3.751,4.834 l 1.499,-1.324 c -1.379,-1.562 -2.553,-3.074 -3.588,-4.621 l -1.662,1.111 z"
           id="path41"
           inkscape:connector-curvature="0"
           style="fill:#000000;stroke:#000000;stroke-opacity:1" /><path
           d="m 19.047,48.104 -1.995,0.137 c 0.153,2.23 0.372,4.208 0.668,6.045 l 1.975,-0.319 c -0.288,-1.776 -0.499,-3.694 -0.648,-5.863 z"
           id="path43"
           inkscape:connector-curvature="0"
           style="fill:#000000;stroke:#000000;stroke-opacity:1" /><path
           d="m 80.068,53.967 1.976,0.319 c 0.297,-1.837 0.517,-3.814 0.668,-6.045 l -1.995,-0.137 c -0.149,2.169 -0.362,4.087 -0.649,5.863 z"
           id="path45"
           inkscape:connector-curvature="0"
           style="fill:#000000;stroke:#000000;stroke-opacity:1" /><path
           d="m 70.979,72.984 1.498,1.322 c 1.439,-1.63 2.666,-3.211 3.752,-4.832 l -1.662,-1.113 c -1.038,1.548 -2.21,3.061 -3.588,4.623 z"
           id="path47"
           inkscape:connector-curvature="0"
           style="fill:#000000;stroke:#000000;stroke-opacity:1" /><path
           d="m 49.882,90.52 c -0.207,-0.146 -0.916,-0.789 -1.12,-0.934 l -1.148,1.639 c 0.41,0.287 2.286,1.713 2.286,1.713 0,0 1.857,-1.504 2.268,-1.791 l -1.165,-1.561 c -0.205,0.143 -0.914,0.788 -1.121,0.934 z"
           id="path49"
           inkscape:connector-curvature="0"
           style="fill:#000000;stroke:#000000;stroke-opacity:1" /><path
           d="m 76.977,64.16 1.803,0.867 c 0.886,-1.84 1.597,-3.723 2.174,-5.754 L 79.03,58.726 c -0.548,1.922 -1.218,3.699 -2.053,5.434 z"
           id="path51"
           inkscape:connector-curvature="0"
           style="fill:#000000;stroke:#000000;stroke-opacity:1" /><path
           d="m 54.552,87.191 1.179,1.617 c 1.719,-1.254 3.338,-2.476 4.814,-3.627 l -1.23,-1.576 c -1.461,1.139 -3.063,2.346 -4.763,3.586 z"
           id="path53"
           inkscape:connector-curvature="0"
           style="fill:#000000;stroke:#000000;stroke-opacity:1" /><path
           d="m 63.165,80.484 1.29,1.529 c 1.636,-1.382 3.152,-2.744 4.507,-4.051 l -1.389,-1.439 c -1.322,1.277 -2.805,2.61 -4.408,3.961 z"
           id="path55"
           inkscape:connector-curvature="0"
           style="fill:#000000;stroke:#000000;stroke-opacity:1" /></g></g></g></svg>