<?xml version="1.0" encoding="UTF-8" standalone="no"?>
<svg
   xmlns:dc="http://purl.org/dc/elements/1.1/"
   xmlns:cc="http://creativecommons.org/ns#"
   xmlns:rdf="http://www.w3.org/1999/02/22-rdf-syntax-ns#"
   xmlns:svg="http://www.w3.org/2000/svg"
   xmlns="http://www.w3.org/2000/svg"
   xmlns:sodipodi="http://sodipodi.sourceforge.net/DTD/sodipodi-0.dtd"
   xmlns:inkscape="http://www.inkscape.org/namespaces/inkscape"
   version="1.1"
   id="Layer_1"
   x="0px"
   y="0px"
   width="100px"
   height="100px"
   viewBox="0 0 100 100"
   enable-background="new 0 0 100 100"
   xml:space="preserve"
   inkscape:version="0.48.4 r9939"
   sodipodi:docname="5.svg"><metadata
     id="metadata16"><rdf:RDF><cc:Work
         rdf:about=""><dc:format>image/svg+xml</dc:format><dc:type
           rdf:resource="http://purl.org/dc/dcmitype/StillImage" /><dc:title></dc:title></cc:Work></rdf:RDF></metadata><defs
     id="defs14" /><sodipodi:namedview
     pagecolor="#ffffff"
     bordercolor="#666666"
     borderopacity="1"
     objecttolerance="10"
     gridtolerance="10"
     guidetolerance="10"
     inkscape:pageopacity="0"
     inkscape:pageshadow="2"
     inkscape:window-width="1600"
     inkscape:window-height="875"
     id="namedview12"
     showgrid="false"
     inkscape:zoom="3.337544"
     inkscape:cx="17.402465"
     inkscape:cy="50"
     inkscape:window-x="0"
     inkscape:window-y="0"
     inkscape:window-maximized="1"
     inkscape:current-layer="g6" /><g
     id="g3"
     style="fill:none;stroke:#000000;stroke-width:3;stroke-linejoin:round;stroke-miterlimit:4;stroke-opacity:1;stroke-dasharray:none"
     transform="translate(-12.168932,-19.677687)"><g
       id="XMLID_4_"
       style="fill:none;stroke:#000000;stroke-width:3;stroke-linejoin:round;stroke-miterlimit:4;stroke-opacity:1;stroke-dasharray:none"><g
         id="g6"
         style="fill:none;stroke:#000000;stroke-width:3;stroke-linejoin:round;stroke-miterlimit:4;stroke-opacity:1;stroke-dasharray:none"><g
           id="g3761"
           transform="matrix(1.7345938,0,0,1.7345938,-23.908925,-17.204319)"
           style="stroke-width:1.75195301;stroke-miterlimit:4;stroke-dasharray:none"><path
             inkscape:connector-curvature="0"
             style="fill:none;stroke:#000000;stroke-width:1.75195301;stroke-linejoin:round;stroke-miterlimit:4;stroke-opacity:1;stroke-dasharray:none"
             id="path8"
             d="m 61.736432,68.034622 c -5.468,0 -10.407,-1.904 -13.254,-4.713 -1.603,-1.565 -2.546,-3.45 -2.546,-5.411 0,-5.449 7.24,-10.105 15.8,-10.105 3.959,0 7.636,0.98 10.444,2.583 3.281,1.885 5.393,4.6 5.393,7.522 0,3.45 -0.792,5.543 -5.091,7.428 -0.471,0.208 -1.357,0.584 -2.111,6.184 l -5.788,-3.582 -0.396,0.057 c -0.51,0.075 -0.735,0.075 -0.924,0.075 -0.133,0 -0.265,0 -0.415,-0.019 -0.263,0 -0.603,-0.019 -1.112,-0.019 z" /><path
             inkscape:connector-curvature="0"
             style="fill:none;stroke:#000000;stroke-width:1.75195301;stroke-linejoin:round;stroke-miterlimit:4;stroke-opacity:1;stroke-dasharray:none"
             id="path10"
             d="M 44.563,62.965 C 43.414,62.89 42.301,62.757 41.208,62.588 l -6.392,5.6 -1.471,-7.862 c -7.032,-3.054 -11.67,-8.39 -11.67,-14.479 0,-9.483 11.388,-17.194 25.414,-17.194 14.046,0 25.434,7.711 25.434,17.194 0,0.49 -0.019,0.961 -0.094,1.414 -3.055,-1.622 -6.92,-2.583 -11.143,-2.583 -10.237,0 -18.288,5.694 -18.288,12.934 0.001,1.903 0.566,3.732 1.565,5.353 z" /></g></g></g></g></svg>