<?xml version="1.0" encoding="UTF-8" standalone="no"?>
<svg
   xmlns:dc="http://purl.org/dc/elements/1.1/"
   xmlns:cc="http://creativecommons.org/ns#"
   xmlns:rdf="http://www.w3.org/1999/02/22-rdf-syntax-ns#"
   xmlns:svg="http://www.w3.org/2000/svg"
   xmlns="http://www.w3.org/2000/svg"
   xmlns:sodipodi="http://sodipodi.sourceforge.net/DTD/sodipodi-0.dtd"
   xmlns:inkscape="http://www.inkscape.org/namespaces/inkscape"
   version="1.1"
   id="Calque_1"
   x="0px"
   y="0px"
   width="100px"
   height="100px"
   viewBox="0 0 100 100"
   enable-background="new 0 0 100 100"
   xml:space="preserve"
   inkscape:version="0.48.4 r9939"
   sodipodi:docname="6.svg"><metadata
     id="metadata27"><rdf:RDF><cc:Work
         rdf:about=""><dc:format>image/svg+xml</dc:format><dc:type
           rdf:resource="http://purl.org/dc/dcmitype/StillImage" /><dc:title></dc:title></cc:Work></rdf:RDF></metadata><defs
     id="defs25" /><sodipodi:namedview
     pagecolor="#ffffff"
     bordercolor="#666666"
     borderopacity="1"
     objecttolerance="10"
     gridtolerance="10"
     guidetolerance="10"
     inkscape:pageopacity="0"
     inkscape:pageshadow="2"
     inkscape:window-width="1600"
     inkscape:window-height="875"
     id="namedview23"
     showgrid="false"
     inkscape:zoom="6.675088"
     inkscape:cx="27.555535"
     inkscape:cy="50"
     inkscape:window-x="0"
     inkscape:window-y="0"
     inkscape:window-maximized="1"
     inkscape:current-layer="g3" /><g
     id="g3"
     style="fill:none;stroke:#000000;stroke-opacity:1;stroke-width:3;stroke-miterlimit:4;stroke-dasharray:none"><g
       id="g3810"
       transform="translate(2.7603365,-0.19499662)"><path
         inkscape:connector-curvature="0"
         style="fill:none;stroke:#000000;stroke-width:2.19661307;stroke-miterlimit:4;stroke-opacity:1;stroke-dasharray:none"
         id="path5"
         d="m 68.174568,67.330195 c -0.954062,0.954063 -2.499013,0.955527 -3.453075,0 l -3.702758,-3.702757 c -0.954062,-0.951133 -0.954062,-2.499745 0,-3.450879 l 0,0 c 0.954062,-0.954062 2.498282,-0.954062 3.452344,-0.0015 l 3.702758,3.702758 c 0.954062,0.954063 0.954062,2.499746 7.31e-4,3.452343 l 0,0 z" /><path
         inkscape:connector-curvature="0"
         style="fill:none;stroke:#000000;stroke-width:2.19215536;stroke-miterlimit:4;stroke-opacity:1;stroke-dasharray:none"
         id="path7"
         d="m 62.74571,72.729819 c -0.952127,0.952127 -2.599897,0.846172 -3.680629,-0.235291 L 53.844828,67.272814 C 52.763364,66.192082 52.65668,64.544311 53.609537,63.592916 l 0,0 c 0.950665,-0.951395 2.599897,-0.845441 3.679168,0.236021 l 5.222443,5.218061 c 1.082194,1.081463 1.186687,2.730694 0.234562,3.682821 l 0,0 z" /><path
         inkscape:connector-curvature="0"
         style="fill:none;stroke:#000000;stroke-width:2.30870891;stroke-miterlimit:4;stroke-opacity:1;stroke-dasharray:none"
         id="path9"
         d="m 57.857129,78.808899 c -1.00121,1.002749 -2.73813,0.891161 -3.877092,-0.247803 l -4.70438,-4.706687 c -1.138963,-1.138963 -1.249782,-2.874343 -0.247801,-3.877093 l 0,0 c 1.00121,-1.00121 2.736589,-0.890392 3.876322,0.247032 l 4.706688,4.705919 c 1.136654,1.138963 1.247473,2.875882 0.246263,3.878632 l 0,0 z" /><path
         inkscape:connector-curvature="0"
         style="fill:none;stroke:#000000;stroke-width:2.83275533;stroke-miterlimit:4;stroke-opacity:1;stroke-dasharray:none"
         id="path11"
         d="m 46.498075,74.770401 -0.15769,0.159578 c 0.07838,-0.01888 0.154857,-0.04721 0.234175,-0.06043 -0.02927,-0.03022 -0.05005,-0.0661 -0.07648,-0.09915 z" /><path
         inkscape:connector-curvature="0"
         style="fill:none;stroke:#000000;stroke-width:2.33979797;stroke-miterlimit:4;stroke-opacity:1;stroke-dasharray:none"
         id="path13"
         d="m 52.705252,84.762737 c -1.016252,1.016253 -2.775,0.903163 -3.93008,-0.251138 l -2.19707,-2.19707 c -1.154301,-1.1543 -1.265831,-2.913048 -0.251139,-3.9293 l 0,0 c 1.017812,-1.016253 2.775,-0.903942 3.929301,0.250358 l 2.19707,2.197071 c 1.15586,1.155859 1.26895,2.913047 0.251918,3.930079 l 0,0 z" /><path
         inkscape:connector-curvature="0"
         style="fill:none;stroke:#000000;stroke-width:2.83275533;stroke-miterlimit:4;stroke-opacity:1;stroke-dasharray:none"
         id="path15"
         d="m 58.271399,29.742927 -9.541665,0.0038 c -0.115198,0 -0.223787,0.01983 -0.337097,0.02928 H 35.950231 c -1.625057,0 -3.888429,0.947084 -5.029085,2.105681 L 16.011411,47.022734 c -1.140657,1.157653 -1.133102,3.045212 0.0151,4.194366 l 6.898703,6.897759 c 1.148211,1.149156 3.02916,1.149156 4.177371,0 L 47.410614,37.806837 c 0.743127,-0.74407 1.95649,-1.395604 3.161355,-1.766695 l 7.69943,0.0019 c 1.976319,9.45e-4 3.577769,-1.408824 3.577769,-3.148135 0,-1.739311 -1.60145,-3.150968 -3.577769,-3.150968 z" /><path
         inkscape:connector-curvature="0"
         style="fill:none;stroke:#000000;stroke-width:2.83275533;stroke-miterlimit:4;stroke-opacity:1;stroke-dasharray:none"
         id="path17"
         d="m 29.078416,24.464923 -5.546535,-8.422726 c -1.150098,-1.150099 -3.030103,-1.150099 -4.181146,0 L -0.48138502,35.49095 c -1.15009868,1.149154 -1.15009868,3.02916 0,4.178314 l 8.80703572,5.547479 c 1.1500988,1.149155 3.0301043,1.149155 4.1802033,0 L 29.078416,28.644181 c 1.151043,-1.149155 1.151043,-3.030104 0,-4.179258 z M 6.902664,41.089419 c -1.0386772,0 -1.8818941,-0.842272 -1.8818941,-1.881894 0,-1.03962 0.8432169,-1.881893 1.8818941,-1.881893 1.0386771,0 1.8818935,0.842273 1.8818935,1.881893 0,1.039622 -0.844161,1.881894 -1.8818935,1.881894 z" /><path
         inkscape:connector-curvature="0"
         style="fill:none;stroke:#000000;stroke-width:2.83275533;stroke-miterlimit:4;stroke-opacity:1;stroke-dasharray:none"
         id="path19"
         d="m 65.399018,30.648436 16.573507,16.572562 c 1.150098,1.149155 3.030103,1.149155 4.181147,0 l 8.807039,-5.547479 c 1.1501,-1.150099 1.1501,-3.029159 0,-4.179258 L 75.126699,18.046451 c -1.151042,-1.149154 -3.030103,-1.149154 -4.181147,0 l -5.546534,8.422726 c -1.150099,1.149155 -1.150099,3.030104 0,4.179259 z m 20.295747,10.563343 c 0,-1.03962 0.843217,-1.881893 1.88095,-1.881893 1.037733,0 1.881894,0.842273 1.881894,1.881893 0,1.039622 -0.844161,1.881895 -1.881894,1.881895 -1.037733,0 -1.88095,-0.843217 -1.88095,-1.881895 z" /><path
         inkscape:connector-curvature="0"
         style="fill:none;stroke:#000000;stroke-width:2.83275533;stroke-miterlimit:4;stroke-opacity:1;stroke-dasharray:none"
         id="path21"
         d="M 78.275925,48.770428 64.870382,35.365831 c -0.184129,1.112328 -0.742182,2.155727 -1.630723,2.936622 -1.034899,0.911203 -2.395567,1.413546 -3.830829,1.413546 l -7.386882,-0.0019 c -0.846049,0.296494 -1.642054,0.748791 -2.082075,1.188812 L 29.630906,61.21189 c -0.749735,0.749736 -1.707207,1.21053 -2.740219,1.367277 l -0.304993,0.301215 c -1.23036,1.230361 -1.23036,3.221788 0,4.452148 1.228472,1.23036 3.223676,1.232248 4.452147,0 L 42.725789,55.673853 c 0.159579,-0.159578 0.380534,-0.259669 0.625095,-0.259669 0.490067,0 0.885708,0.395642 0.885708,0.884763 0,0.244562 -0.0982,0.466462 -0.259669,0.627928 l 0.0066,0.0066 -13.795518,13.797406 c -1.397492,1.397493 -1.533464,3.524893 -0.304048,4.757141 1.228471,1.228472 3.359647,1.0925 4.756195,-0.304993 l 13.81158,-13.780401 c 0.161467,-0.161467 0.381478,-0.261557 0.626039,-0.261557 0.491011,0 0.885708,0.397529 0.885708,0.885708 0,0.244562 -0.10009,0.466461 -0.261557,0.626983 l 0.0038,0.0019 -13.515075,13.515076 c -1.396549,1.397492 -1.531577,3.526781 -0.303105,4.757141 1.23036,1.230359 3.359648,1.094387 4.75714,-0.303105 l 2.10096,-2.100961 c 0.200181,-0.860213 0.602433,-1.669437 1.255855,-2.323803 0.643036,-0.642091 1.454148,-1.066061 2.339856,-1.270019 l 0.15769,-0.159579 c -0.853603,-0.965969 -1.382385,-2.153838 -1.462646,-3.404028 -0.09348,-1.451314 0.420192,-2.849751 1.405991,-3.83555 0.902705,-0.900816 2.124566,-1.399381 3.442741,-1.411656 -0.164299,-0.527837 -0.27761,-1.070781 -0.27761,-1.620336 0,-1.339893 0.503287,-2.579696 1.420155,-3.494676 0.911203,-0.911203 2.151006,-1.414489 3.4909,-1.414489 1.1416,0 2.27659,0.379589 3.239727,1.054729 0.194515,-0.98391 0.677029,-1.890392 1.402214,-2.614633 0.965025,-0.965026 2.250152,-1.498528 3.617429,-1.498528 1.367276,0 2.652403,0.532559 3.619317,1.500416 l 3.932808,3.931865 7.946823,-8.096959 c 1.400326,-1.400325 1.400326,-3.693913 -9.44e-4,-5.096127 z" /></g></g></svg>